<svg width="480" height="107" viewBox="0 0 480 107" fill="none" xmlns="http://www.w3.org/2000/svg">
<g clip-path="url(#clip0_332_2)">
<path d="M25.1627 34.53C25.1627 32.49 25.6327 30.66 26.5727 29.04C27.5327 27.42 28.8227 26.16 30.4427 25.26C32.0827 24.34 33.8727 23.88 35.8127 23.88C38.0327 23.88 40.0027 24.43 41.7227 25.53C43.4627 26.61 44.7227 28.15 45.5027 30.15H41.3927C40.8527 29.05 40.1027 28.23 39.1427 27.69C38.1827 27.15 37.0727 26.88 35.8127 26.88C34.4327 26.88 33.2027 27.19 32.1227 27.81C31.0427 28.43 30.1927 29.32 29.5727 30.48C28.9727 31.64 28.6727 32.99 28.6727 34.53C28.6727 36.07 28.9727 37.42 29.5727 38.58C30.1927 39.74 31.0427 40.64 32.1227 41.28C33.2027 41.9 34.4327 42.21 35.8127 42.21C37.0727 42.21 38.1827 41.94 39.1427 41.4C40.1027 40.86 40.8527 40.04 41.3927 38.94H45.5027C44.7227 40.94 43.4627 42.48 41.7227 43.56C40.0027 44.64 38.0327 45.18 35.8127 45.18C33.8527 45.18 32.0627 44.73 30.4427 43.83C28.8227 42.91 27.5327 41.64 26.5727 40.02C25.6327 38.4 25.1627 36.57 25.1627 34.53ZM52.9259 22.8V45H49.5059V22.8H52.9259ZM59.156 26.28C58.536 26.28 58.016 26.07 57.596 25.65C57.176 25.23 56.966 24.71 56.966 24.09C56.966 23.47 57.176 22.95 57.596 22.53C58.016 22.11 58.536 21.9 59.156 21.9C59.756 21.9 60.266 22.11 60.686 22.53C61.106 22.95 61.316 23.47 61.316 24.09C61.316 24.71 61.106 25.23 60.686 25.65C60.266 26.07 59.756 26.28 59.156 26.28ZM60.836 28.47V45H57.416V28.47H60.836ZM64.1862 36.66C64.1862 35 64.5262 33.53 65.2062 32.25C65.9062 30.97 66.8462 29.98 68.0262 29.28C69.2262 28.56 70.5562 28.2 72.0162 28.2C73.2962 28.2 74.4262 28.46 75.4062 28.98C76.4062 29.5 77.1762 30.13 77.7162 30.87V28.47H81.1662V52.86H77.7162V42.6C77.1762 43.34 76.3962 43.97 75.3762 44.49C74.3562 45.01 73.1962 45.27 71.8962 45.27C70.4762 45.27 69.1762 44.91 67.9962 44.19C66.8362 43.45 65.9062 42.43 65.2062 41.13C64.5262 39.81 64.1862 38.32 64.1862 36.66ZM77.7162 36.72C77.7162 35.58 77.4762 34.59 76.9962 33.75C76.5362 32.91 75.9262 32.27 75.1662 31.83C74.4062 31.39 73.5862 31.17 72.7062 31.17C71.8262 31.17 71.0062 31.39 70.2462 31.83C69.4862 32.25 68.8662 32.88 68.3862 33.72C67.9262 34.54 67.6962 35.52 67.6962 36.66C67.6962 37.8 67.9262 38.8 68.3862 39.66C68.8662 40.52 69.4862 41.18 70.2462 41.64C71.0262 42.08 71.8462 42.3 72.7062 42.3C73.5862 42.3 74.4062 42.08 75.1662 41.64C75.9262 41.2 76.5362 40.56 76.9962 39.72C77.4762 38.86 77.7162 37.86 77.7162 36.72ZM100.628 28.47V45H97.2082V43.05C96.6682 43.73 95.9582 44.27 95.0782 44.67C94.2182 45.05 93.2982 45.24 92.3182 45.24C91.0182 45.24 89.8482 44.97 88.8082 44.43C87.7882 43.89 86.9782 43.09 86.3782 42.03C85.7982 40.97 85.5082 39.69 85.5082 38.19V28.47H88.8982V37.68C88.8982 39.16 89.2682 40.3 90.0082 41.1C90.7482 41.88 91.7582 42.27 93.0382 42.27C94.3182 42.27 95.3282 41.88 96.0682 41.1C96.8282 40.3 97.2082 39.16 97.2082 37.68V28.47H100.628ZM120.291 36.33C120.291 36.95 120.251 37.51 120.171 38.01H107.541C107.641 39.33 108.131 40.39 109.011 41.19C109.891 41.99 110.971 42.39 112.251 42.39C114.091 42.39 115.391 41.62 116.151 40.08H119.841C119.341 41.6 118.431 42.85 117.111 43.83C115.811 44.79 114.191 45.27 112.251 45.27C110.671 45.27 109.251 44.92 107.991 44.22C106.751 43.5 105.771 42.5 105.051 41.22C104.351 39.92 104.001 38.42 104.001 36.72C104.001 35.02 104.341 33.53 105.021 32.25C105.721 30.95 106.691 29.95 107.931 29.25C109.191 28.55 110.631 28.2 112.251 28.2C113.811 28.2 115.201 28.54 116.421 29.22C117.641 29.9 118.591 30.86 119.271 32.1C119.951 33.32 120.291 34.73 120.291 36.33ZM116.721 35.25C116.701 33.99 116.251 32.98 115.371 32.22C114.491 31.46 113.401 31.08 112.101 31.08C110.921 31.08 109.911 31.46 109.071 32.22C108.231 32.96 107.731 33.97 107.571 35.25H116.721ZM146.599 36.33C146.599 36.95 146.559 37.51 146.479 38.01H133.849C133.949 39.33 134.439 40.39 135.319 41.19C136.199 41.99 137.279 42.39 138.559 42.39C140.399 42.39 141.699 41.62 142.459 40.08H146.149C145.649 41.6 144.739 42.85 143.419 43.83C142.119 44.79 140.499 45.27 138.559 45.27C136.979 45.27 135.559 44.92 134.299 44.22C133.059 43.5 132.079 42.5 131.359 41.22C130.659 39.92 130.309 38.42 130.309 36.72C130.309 35.02 130.649 33.53 131.329 32.25C132.029 30.95 132.999 29.95 134.239 29.25C135.499 28.55 136.939 28.2 138.559 28.2C140.119 28.2 141.509 28.54 142.729 29.22C143.949 29.9 144.899 30.86 145.579 32.1C146.259 33.32 146.599 34.73 146.599 36.33ZM143.029 35.25C143.009 33.99 142.559 32.98 141.679 32.22C140.799 31.46 139.709 31.08 138.409 31.08C137.229 31.08 136.219 31.46 135.379 32.22C134.539 32.96 134.039 33.97 133.879 35.25H143.029ZM156.618 34.53C156.618 32.49 157.088 30.66 158.028 29.04C158.988 27.42 160.278 26.16 161.898 25.26C163.538 24.34 165.328 23.88 167.268 23.88C169.488 23.88 171.458 24.43 173.178 25.53C174.918 26.61 176.178 28.15 176.958 30.15H172.848C172.308 29.05 171.558 28.23 170.598 27.69C169.638 27.15 168.528 26.88 167.268 26.88C165.888 26.88 164.658 27.19 163.578 27.81C162.498 28.43 161.648 29.32 161.028 30.48C160.428 31.64 160.128 32.99 160.128 34.53C160.128 36.07 160.428 37.42 161.028 38.58C161.648 39.74 162.498 40.64 163.578 41.28C164.658 41.9 165.888 42.21 167.268 42.21C168.528 42.21 169.638 41.94 170.598 41.4C171.558 40.86 172.308 40.04 172.848 38.94H176.958C176.178 40.94 174.918 42.48 173.178 43.56C171.458 44.64 169.488 45.18 167.268 45.18C165.308 45.18 163.518 44.73 161.898 43.83C160.278 42.91 158.988 41.64 158.028 40.02C157.088 38.4 156.618 36.57 156.618 34.53ZM188.131 45.27C186.571 45.27 185.161 44.92 183.901 44.22C182.641 43.5 181.651 42.5 180.931 41.22C180.211 39.92 179.851 38.42 179.851 36.72C179.851 35.04 180.221 33.55 180.961 32.25C181.701 30.95 182.711 29.95 183.991 29.25C185.271 28.55 186.701 28.2 188.281 28.2C189.861 28.2 191.291 28.55 192.571 29.25C193.851 29.95 194.861 30.95 195.601 32.25C196.341 33.55 196.711 35.04 196.711 36.72C196.711 38.4 196.331 39.89 195.571 41.19C194.811 42.49 193.771 43.5 192.451 44.22C191.151 44.92 189.711 45.27 188.131 45.27ZM188.131 42.3C189.011 42.3 189.831 42.09 190.591 41.67C191.371 41.25 192.001 40.62 192.481 39.78C192.961 38.94 193.201 37.92 193.201 36.72C193.201 35.52 192.971 34.51 192.511 33.69C192.051 32.85 191.441 32.22 190.681 31.8C189.921 31.38 189.101 31.17 188.221 31.17C187.341 31.17 186.521 31.38 185.761 31.8C185.021 32.22 184.431 32.85 183.991 33.69C183.551 34.51 183.331 35.52 183.331 36.72C183.331 38.5 183.781 39.88 184.681 40.86C185.601 41.82 186.751 42.3 188.131 42.3ZM208.432 28.2C209.732 28.2 210.892 28.47 211.912 29.01C212.952 29.55 213.762 30.35 214.342 31.41C214.922 32.47 215.212 33.75 215.212 35.25V45H211.822V35.76C211.822 34.28 211.452 33.15 210.712 32.37C209.972 31.57 208.962 31.17 207.682 31.17C206.402 31.17 205.382 31.57 204.622 32.37C203.882 33.15 203.512 34.28 203.512 35.76V45H200.092V28.47H203.512V30.36C204.072 29.68 204.782 29.15 205.642 28.77C206.522 28.39 207.452 28.2 208.432 28.2ZM228.124 28.2C229.384 28.2 230.504 28.47 231.484 29.01C232.484 29.55 233.264 30.35 233.824 31.41C234.404 32.47 234.694 33.75 234.694 35.25V45H231.304V35.76C231.304 34.28 230.934 33.15 230.194 32.37C229.454 31.57 228.444 31.17 227.164 31.17C225.884 31.17 224.864 31.57 224.104 32.37C223.364 33.15 222.994 34.28 222.994 35.76V45H219.574V22.8H222.994V30.39C223.574 29.69 224.304 29.15 225.184 28.77C226.084 28.39 227.064 28.2 228.124 28.2ZM254.207 36.33C254.207 36.95 254.167 37.51 254.087 38.01H241.457C241.557 39.33 242.047 40.39 242.927 41.19C243.807 41.99 244.887 42.39 246.167 42.39C248.007 42.39 249.307 41.62 250.067 40.08H253.757C253.257 41.6 252.347 42.85 251.027 43.83C249.727 44.79 248.107 45.27 246.167 45.27C244.587 45.27 243.167 44.92 241.907 44.22C240.667 43.5 239.687 42.5 238.967 41.22C238.267 39.92 237.917 38.42 237.917 36.72C237.917 35.02 238.257 33.53 238.937 32.25C239.637 30.95 240.607 29.95 241.847 29.25C243.107 28.55 244.547 28.2 246.167 28.2C247.727 28.2 249.117 28.54 250.337 29.22C251.557 29.9 252.507 30.86 253.187 32.1C253.867 33.32 254.207 34.73 254.207 36.33ZM250.637 35.25C250.617 33.99 250.167 32.98 249.287 32.22C248.407 31.46 247.317 31.08 246.017 31.08C244.837 31.08 243.827 31.46 242.987 32.22C242.147 32.96 241.647 33.97 241.487 35.25H250.637ZM264.532 42.39C266.512 42.39 267.822 41.52 268.462 39.78H272.152C271.712 41.3 270.922 42.55 269.782 43.53C268.662 44.49 267.252 45.05 265.552 45.21V46.44C266.712 46.44 267.652 46.71 268.372 47.25C269.092 47.81 269.452 48.59 269.452 49.59C269.452 50.59 269.092 51.38 268.372 51.96C267.652 52.56 266.742 52.86 265.642 52.86H261.682V50.7H264.952C265.512 50.7 265.932 50.62 266.212 50.46C266.492 50.3 266.632 50.01 266.632 49.59C266.632 49.17 266.492 48.88 266.212 48.72C265.932 48.56 265.512 48.48 264.952 48.48H263.302V45.18C261.942 45.02 260.742 44.57 259.702 43.83C258.662 43.07 257.852 42.09 257.272 40.89C256.712 39.67 256.432 38.28 256.432 36.72C256.432 35.02 256.772 33.53 257.452 32.25C258.152 30.95 259.112 29.95 260.332 29.25C261.552 28.55 262.952 28.2 264.532 28.2C266.532 28.2 268.182 28.68 269.482 29.64C270.802 30.58 271.692 31.93 272.152 33.69H268.462C268.162 32.87 267.682 32.23 267.022 31.77C266.362 31.31 265.532 31.08 264.532 31.08C263.132 31.08 262.012 31.58 261.172 32.58C260.352 33.56 259.942 34.94 259.942 36.72C259.942 38.5 260.352 39.89 261.172 40.89C262.012 41.89 263.132 42.39 264.532 42.39ZM274.421 36.66C274.421 35 274.761 33.53 275.441 32.25C276.141 30.97 277.081 29.98 278.261 29.28C279.461 28.56 280.781 28.2 282.221 28.2C283.521 28.2 284.651 28.46 285.611 28.98C286.591 29.48 287.371 30.11 287.951 30.87V28.47H291.401V45H287.951V42.54C287.371 43.32 286.581 43.97 285.581 44.49C284.581 45.01 283.441 45.27 282.161 45.27C280.741 45.27 279.441 44.91 278.261 44.19C277.081 43.45 276.141 42.43 275.441 41.13C274.761 39.81 274.421 38.32 274.421 36.66ZM287.951 36.72C287.951 35.58 287.711 34.59 287.231 33.75C286.771 32.91 286.161 32.27 285.401 31.83C284.641 31.39 283.821 31.17 282.941 31.17C282.061 31.17 281.241 31.39 280.481 31.83C279.721 32.25 279.101 32.88 278.621 33.72C278.161 34.54 277.931 35.52 277.931 36.66C277.931 37.8 278.161 38.8 278.621 39.66C279.101 40.52 279.721 41.18 280.481 41.64C281.261 42.08 282.081 42.3 282.941 42.3C283.821 42.3 284.641 42.08 285.401 41.64C286.161 41.2 286.771 40.56 287.231 39.72C287.711 38.86 287.951 37.86 287.951 36.72ZM318.656 28.47V45H315.236V43.05C314.696 43.73 313.986 44.27 313.106 44.67C312.246 45.05 311.326 45.24 310.346 45.24C309.046 45.24 307.876 44.97 306.836 44.43C305.816 43.89 305.006 43.09 304.406 42.03C303.826 40.97 303.536 39.69 303.536 38.19V28.47H306.926V37.68C306.926 39.16 307.296 40.3 308.036 41.1C308.776 41.88 309.786 42.27 311.066 42.27C312.346 42.27 313.356 41.88 314.096 41.1C314.856 40.3 315.236 39.16 315.236 37.68V28.47H318.656ZM343.178 28.2C344.478 28.2 345.638 28.47 346.658 29.01C347.698 29.55 348.508 30.35 349.088 31.41C349.688 32.47 349.988 33.75 349.988 35.25V45H346.598V35.76C346.598 34.28 346.228 33.15 345.488 32.37C344.748 31.57 343.738 31.17 342.458 31.17C341.178 31.17 340.158 31.57 339.398 32.37C338.658 33.15 338.288 34.28 338.288 35.76V45H334.898V35.76C334.898 34.28 334.528 33.15 333.788 32.37C333.048 31.57 332.038 31.17 330.758 31.17C329.478 31.17 328.458 31.57 327.698 32.37C326.958 33.15 326.588 34.28 326.588 35.76V45H323.168V28.47H326.588V30.36C327.148 29.68 327.858 29.15 328.718 28.77C329.578 28.39 330.498 28.2 331.478 28.2C332.798 28.2 333.978 28.48 335.018 29.04C336.058 29.6 336.858 30.41 337.418 31.47C337.918 30.47 338.698 29.68 339.758 29.1C340.818 28.5 341.958 28.2 343.178 28.2ZM365.553 30.9C366.133 30.14 366.923 29.5 367.923 28.98C368.923 28.46 370.053 28.2 371.313 28.2C372.753 28.2 374.063 28.56 375.243 29.28C376.443 29.98 377.383 30.97 378.063 32.25C378.743 33.53 379.083 35 379.083 36.66C379.083 38.32 378.743 39.81 378.063 41.13C377.383 42.43 376.443 43.45 375.243 44.19C374.063 44.91 372.753 45.27 371.313 45.27C370.053 45.27 368.933 45.02 367.953 44.52C366.973 44 366.173 43.36 365.553 42.6V52.86H362.133V28.47H365.553V30.9ZM375.603 36.66C375.603 35.52 375.363 34.54 374.883 33.72C374.423 32.88 373.803 32.25 373.023 31.83C372.263 31.39 371.443 31.17 370.563 31.17C369.703 31.17 368.883 31.39 368.103 31.83C367.343 32.27 366.723 32.91 366.243 33.75C365.783 34.59 365.553 35.58 365.553 36.72C365.553 37.86 365.783 38.86 366.243 39.72C366.723 40.56 367.343 41.2 368.103 41.64C368.883 42.08 369.703 42.3 370.563 42.3C371.443 42.3 372.263 42.08 373.023 41.64C373.803 41.18 374.423 40.52 374.883 39.66C375.363 38.8 375.603 37.8 375.603 36.66ZM389.635 45.27C388.075 45.27 386.665 44.92 385.405 44.22C384.145 43.5 383.155 42.5 382.435 41.22C381.715 39.92 381.355 38.42 381.355 36.72C381.355 35.04 381.725 33.55 382.465 32.25C383.205 30.95 384.215 29.95 385.495 29.25C386.775 28.55 388.205 28.2 389.785 28.2C391.365 28.2 392.795 28.55 394.075 29.25C395.355 29.95 396.365 30.95 397.105 32.25C397.845 33.55 398.215 35.04 398.215 36.72C398.215 38.4 397.835 39.89 397.075 41.19C396.315 42.49 395.275 43.5 393.955 44.22C392.655 44.92 391.215 45.27 389.635 45.27ZM389.635 42.3C390.515 42.3 391.335 42.09 392.095 41.67C392.875 41.25 393.505 40.62 393.985 39.78C394.465 38.94 394.705 37.92 394.705 36.72C394.705 35.52 394.475 34.51 394.015 33.69C393.555 32.85 392.945 32.22 392.185 31.8C391.425 31.38 390.605 31.17 389.725 31.17C388.845 31.17 388.025 31.38 387.265 31.8C386.525 32.22 385.935 32.85 385.495 33.69C385.055 34.51 384.835 35.52 384.835 36.72C384.835 38.5 385.285 39.88 386.185 40.86C387.105 41.82 388.255 42.3 389.635 42.3ZM416.566 28.47V45H413.146V43.05C412.606 43.73 411.896 44.27 411.016 44.67C410.156 45.05 409.236 45.24 408.256 45.24C406.956 45.24 405.786 44.97 404.746 44.43C403.726 43.89 402.916 43.09 402.316 42.03C401.736 40.97 401.446 39.69 401.446 38.19V28.47H404.836V37.68C404.836 39.16 405.206 40.3 405.946 41.1C406.686 41.88 407.696 42.27 408.976 42.27C410.256 42.27 411.266 41.88 412.006 41.1C412.766 40.3 413.146 39.16 413.146 37.68V28.47H416.566ZM419.938 36.72C419.938 35.02 420.278 33.53 420.958 32.25C421.658 30.95 422.618 29.95 423.838 29.25C425.058 28.55 426.458 28.2 428.038 28.2C430.038 28.2 431.688 28.68 432.988 29.64C434.308 30.58 435.198 31.93 435.658 33.69H431.968C431.668 32.87 431.188 32.23 430.528 31.77C429.868 31.31 429.038 31.08 428.038 31.08C426.638 31.08 425.518 31.58 424.678 32.58C423.858 33.56 423.448 34.94 423.448 36.72C423.448 38.5 423.858 39.89 424.678 40.89C425.518 41.89 426.638 42.39 428.038 42.39C430.018 42.39 431.328 41.52 431.968 39.78H435.658C435.178 41.46 434.278 42.8 432.958 43.8C431.638 44.78 429.998 45.27 428.038 45.27C426.458 45.27 425.058 44.92 423.838 44.22C422.618 43.5 421.658 42.5 420.958 41.22C420.278 39.92 419.938 38.42 419.938 36.72ZM446.236 45.27C444.676 45.27 443.266 44.92 442.006 44.22C440.746 43.5 439.756 42.5 439.036 41.22C438.316 39.92 437.956 38.42 437.956 36.72C437.956 35.04 438.326 33.55 439.066 32.25C439.806 30.95 440.816 29.95 442.096 29.25C443.376 28.55 444.806 28.2 446.386 28.2C447.966 28.2 449.396 28.55 450.676 29.25C451.956 29.95 452.966 30.95 453.706 32.25C454.446 33.55 454.816 35.04 454.816 36.72C454.816 38.4 454.436 39.89 453.676 41.19C452.916 42.49 451.876 43.5 450.556 44.22C449.256 44.92 447.816 45.27 446.236 45.27ZM446.236 42.3C447.116 42.3 447.936 42.09 448.696 41.67C449.476 41.25 450.106 40.62 450.586 39.78C451.066 38.94 451.306 37.92 451.306 36.72C451.306 35.52 451.076 34.51 450.616 33.69C450.156 32.85 449.546 32.22 448.786 31.8C448.026 31.38 447.206 31.17 446.326 31.17C445.446 31.17 444.626 31.38 443.866 31.8C443.126 32.22 442.536 32.85 442.096 33.69C441.656 34.51 441.436 35.52 441.436 36.72C441.436 38.5 441.886 39.88 442.786 40.86C443.706 41.82 444.856 42.3 446.236 42.3ZM92.6457 65.2C93.9457 65.2 95.1057 65.47 96.1257 66.01C97.1657 66.55 97.9757 67.35 98.5557 68.41C99.1557 69.47 99.4557 70.75 99.4557 72.25V82H96.0657V72.76C96.0657 71.28 95.6957 70.15 94.9557 69.37C94.2157 68.57 93.2057 68.17 91.9257 68.17C90.6457 68.17 89.6257 68.57 88.8657 69.37C88.1257 70.15 87.7557 71.28 87.7557 72.76V82H84.3657V72.76C84.3657 71.28 83.9957 70.15 83.2557 69.37C82.5157 68.57 81.5057 68.17 80.2257 68.17C78.9457 68.17 77.9257 68.57 77.1657 69.37C76.4257 70.15 76.0557 71.28 76.0557 72.76V82H72.6357V65.47H76.0557V67.36C76.6157 66.68 77.3257 66.15 78.1857 65.77C79.0457 65.39 79.9657 65.2 80.9457 65.2C82.2657 65.2 83.4457 65.48 84.4857 66.04C85.5257 66.6 86.3257 67.41 86.8857 68.47C87.3857 67.47 88.1657 66.68 89.2257 66.1C90.2857 65.5 91.4257 65.2 92.6457 65.2ZM102.668 73.66C102.668 72 103.008 70.53 103.688 69.25C104.388 67.97 105.328 66.98 106.508 66.28C107.708 65.56 109.028 65.2 110.468 65.2C111.768 65.2 112.898 65.46 113.858 65.98C114.838 66.48 115.618 67.11 116.198 67.87V65.47H119.648V82H116.198V79.54C115.618 80.32 114.828 80.97 113.828 81.49C112.828 82.01 111.688 82.27 110.408 82.27C108.988 82.27 107.688 81.91 106.508 81.19C105.328 80.45 104.388 79.43 103.688 78.13C103.008 76.81 102.668 75.32 102.668 73.66ZM116.198 73.72C116.198 72.58 115.958 71.59 115.478 70.75C115.018 69.91 114.408 69.27 113.648 68.83C112.888 68.39 112.068 68.17 111.188 68.17C110.308 68.17 109.488 68.39 108.728 68.83C107.968 69.25 107.348 69.88 106.868 70.72C106.408 71.54 106.178 72.52 106.178 73.66C106.178 74.8 106.408 75.8 106.868 76.66C107.348 77.52 107.968 78.18 108.728 78.64C109.508 79.08 110.328 79.3 111.188 79.3C112.068 79.3 112.888 79.08 113.648 78.64C114.408 78.2 115.018 77.56 115.478 76.72C115.958 75.86 116.198 74.86 116.198 73.72ZM125.88 63.28C125.26 63.28 124.74 63.07 124.32 62.65C123.9 62.23 123.69 61.71 123.69 61.09C123.69 60.47 123.9 59.95 124.32 59.53C124.74 59.11 125.26 58.9 125.88 58.9C126.48 58.9 126.99 59.11 127.41 59.53C127.83 59.95 128.04 60.47 128.04 61.09C128.04 61.71 127.83 62.23 127.41 62.65C126.99 63.07 126.48 63.28 125.88 63.28ZM127.56 65.47V82H124.14V65.47H127.56ZM138.05 82.27C136.75 82.27 135.58 82.04 134.54 81.58C133.52 81.1 132.71 80.46 132.11 79.66C131.51 78.84 131.19 77.93 131.15 76.93H134.69C134.75 77.63 135.08 78.22 135.68 78.7C136.3 79.16 137.07 79.39 137.99 79.39C138.95 79.39 139.69 79.21 140.21 78.85C140.75 78.47 141.02 77.99 141.02 77.41C141.02 76.79 140.72 76.33 140.12 76.03C139.54 75.73 138.61 75.4 137.33 75.04C136.09 74.7 135.08 74.37 134.3 74.05C133.52 73.73 132.84 73.24 132.26 72.58C131.7 71.92 131.42 71.05 131.42 69.97C131.42 69.09 131.68 68.29 132.2 67.57C132.72 66.83 133.46 66.25 134.42 65.83C135.4 65.41 136.52 65.2 137.78 65.2C139.66 65.2 141.17 65.68 142.31 66.64C143.47 67.58 144.09 68.87 144.17 70.51H140.75C140.69 69.77 140.39 69.18 139.85 68.74C139.31 68.3 138.58 68.08 137.66 68.08C136.76 68.08 136.07 68.25 135.59 68.59C135.11 68.93 134.87 69.38 134.87 69.94C134.87 70.38 135.03 70.75 135.35 71.05C135.67 71.35 136.06 71.59 136.52 71.77C136.98 71.93 137.66 72.14 138.56 72.4C139.76 72.72 140.74 73.05 141.5 73.39C142.28 73.71 142.95 74.19 143.51 74.83C144.07 75.47 144.36 76.32 144.38 77.38C144.38 78.32 144.12 79.16 143.6 79.9C143.08 80.64 142.34 81.22 141.38 81.64C140.44 82.06 139.33 82.27 138.05 82.27ZM154.728 73.66C154.728 72 155.068 70.53 155.748 69.25C156.448 67.97 157.388 66.98 158.568 66.28C159.768 65.56 161.098 65.2 162.558 65.2C163.638 65.2 164.698 65.44 165.738 65.92C166.798 66.38 167.638 67 168.258 67.78V59.8H171.708V82H168.258V79.51C167.698 80.31 166.918 80.97 165.918 81.49C164.938 82.01 163.808 82.27 162.528 82.27C161.088 82.27 159.768 81.91 158.568 81.19C157.388 80.45 156.448 79.43 155.748 78.13C155.068 76.81 154.728 75.32 154.728 73.66ZM168.258 73.72C168.258 72.58 168.018 71.59 167.538 70.75C167.078 69.91 166.468 69.27 165.708 68.83C164.948 68.39 164.128 68.17 163.248 68.17C162.368 68.17 161.548 68.39 160.788 68.83C160.028 69.25 159.408 69.88 158.928 70.72C158.468 71.54 158.238 72.52 158.238 73.66C158.238 74.8 158.468 75.8 158.928 76.66C159.408 77.52 160.028 78.18 160.788 78.64C161.568 79.08 162.388 79.3 163.248 79.3C164.128 79.3 164.948 79.08 165.708 78.64C166.468 78.2 167.078 77.56 167.538 76.72C168.018 75.86 168.258 74.86 168.258 73.72ZM175.06 73.66C175.06 72 175.4 70.53 176.08 69.25C176.78 67.97 177.72 66.98 178.9 66.28C180.1 65.56 181.42 65.2 182.86 65.2C184.16 65.2 185.29 65.46 186.25 65.98C187.23 66.48 188.01 67.11 188.59 67.87V65.47H192.04V82H188.59V79.54C188.01 80.32 187.22 80.97 186.22 81.49C185.22 82.01 184.08 82.27 182.8 82.27C181.38 82.27 180.08 81.91 178.9 81.19C177.72 80.45 176.78 79.43 176.08 78.13C175.4 76.81 175.06 75.32 175.06 73.66ZM188.59 73.72C188.59 72.58 188.35 71.59 187.87 70.75C187.41 69.91 186.8 69.27 186.04 68.83C185.28 68.39 184.46 68.17 183.58 68.17C182.7 68.17 181.88 68.39 181.12 68.83C180.36 69.25 179.74 69.88 179.26 70.72C178.8 71.54 178.57 72.52 178.57 73.66C178.57 74.8 178.8 75.8 179.26 76.66C179.74 77.52 180.36 78.18 181.12 78.64C181.9 79.08 182.72 79.3 183.58 79.3C184.46 79.3 185.28 79.08 186.04 78.64C186.8 78.2 187.41 77.56 187.87 76.72C188.35 75.86 188.59 74.86 188.59 73.72Z" fill="#296AA2"/>
<path d="M206.905 82L203.575 78.67V63.22L206.905 59.89H219.265L222.595 63.22V67.3L217.135 67.27V65.2L216.055 64.15H210.265L209.185 65.2V76.66L210.265 77.74H214.975L217.855 75.19V74.41H213.805V70.12H222.925V82H218.185V80.02L215.965 82H206.905ZM231.456 82L228.126 78.67V69.67L231.456 66.34H240.276L243.606 69.67V75.61H233.736V76.99L234.816 78.04H243.366V82H231.456ZM233.736 72.37H238.506V70.51L237.426 69.46H234.816L233.736 70.51V72.37ZM247.209 82V66.31H252.819V68.77L255.489 66.34H258.549V71.35H254.049L252.819 72.46V82H247.209ZM260.803 82V66.31H266.413V68.47L269.053 66.31H274.453L276.943 68.83L280.033 66.31H285.433L288.763 69.67V82H283.153V70.45L282.133 69.49H280.513L277.783 71.8V82H272.173V70.45L271.153 69.49H269.533L266.413 72.13V82H260.803ZM292.355 64.6V60.4H297.965V64.6H292.355ZM292.355 82V66.31H297.965V82H292.355ZM301.877 82V66.31H307.487V68.47L310.127 66.31H315.527L318.857 69.67V82H313.247V70.45L312.227 69.49H310.607L307.487 72.13V82H301.877ZM324.723 82L321.393 78.67V75.34L324.723 72.01H332.193V70.96L331.113 69.88H323.253V66.34H334.443L337.803 69.67V82H332.193V79.87L330.123 82H324.723ZM328.023 78.94H329.643L332.193 76.39V74.8H328.023L326.973 75.85V77.89L328.023 78.94ZM343.464 82V64.45H337.284V59.89H355.254V64.45H349.074V82H343.464ZM357.286 82L353.956 78.67V69.67L357.286 66.34H366.106L369.436 69.67V75.61H359.566V76.99L360.646 78.04H369.196V82H357.286ZM359.566 72.37H364.336V70.51L363.256 69.46H360.646L359.566 70.51V72.37ZM375.919 82L372.589 78.67V69.67L375.919 66.34H385.039L388.189 69.22V72.28H382.579V70.51L381.529 69.46H379.249L378.199 70.51V76.99L379.249 78.04H387.859V82H375.919ZM391.349 82V59.89H396.959V68.17L399.239 66.31H404.639L407.969 69.67V82H402.359V70.45L401.339 69.49H399.719L396.959 71.83V82H391.349Z" fill="#29E78D"/>
</g>
<rect x="1" y="1" width="478" height="105" rx="4" stroke="#29E78D" stroke-width="2" stroke-dasharray="10 5"/>
<defs>
<clipPath id="clip0_332_2">
<rect width="480" height="107" rx="5" fill="white"/>
</clipPath>
</defs>
</svg>
